<?xml version="1.0" standalone="no"?>
<!DOCTYPE svg PUBLIC "-//W3C//DTD SVG 20010904//EN"
 "http://www.w3.org/TR/2001/REC-SVG-20010904/DTD/svg10.dtd">
<svg version="1.0" xmlns="http://www.w3.org/2000/svg"
 width="1002.000000pt" height="1002.000000pt" viewBox="0 0 1002.000000 1002.000000"
 preserveAspectRatio="xMidYMid meet">
<metadata>
Created by potrace 1.11, written by Peter Selinger 2001-2013
</metadata>
<g transform="translate(0.000000,1002.000000) scale(0.100000,-0.100000)"
fill="#000000" stroke="none">
<path d="M4897 9784 c-1 -1 -27 -5 -58 -7 -119 -11 -281 -86 -374 -174 -42
-38 -105 -118 -105 -131 0 -6 -4 -12 -8 -14 -13 -5 -58 -110 -71 -163 -20 -87
-22 -99 -22 -165 -3 -222 109 -432 295 -556 l52 -34 14 -93 c17 -119 16 -111
24 -192 4 -38 9 -81 11 -95 2 -14 7 -61 10 -105 4 -44 8 -96 10 -115 2 -19 6
-73 10 -120 6 -81 9 -110 20 -197 2 -21 7 -58 10 -83 2 -25 7 -55 9 -66 2 -12
7 -37 10 -55 3 -19 8 -45 10 -59 26 -145 26 -143 -9 -146 -117 -9 -226 -28
-350 -59 -55 -14 -107 -27 -116 -29 -8 -2 -31 -11 -50 -18 -18 -8 -38 -16 -44
-18 -5 -1 -20 -6 -33 -11 -13 -5 -25 -9 -28 -9 -2 0 -38 -16 -80 -35 -42 -20
-78 -34 -79 -33 -2 2 -19 46 -38 98 -20 52 -67 176 -105 275 -39 99 -87 234
-107 299 l-37 119 26 51 c131 260 -23 571 -311 631 -52 11 -163 5 -211 -11
-81 -28 -123 -54 -184 -114 -138 -137 -168 -328 -81 -508 59 -121 200 -225
320 -238 70 -7 75 -10 110 -62 18 -26 47 -67 64 -92 18 -25 81 -121 140 -215
60 -93 112 -174 117 -180 32 -40 112 -149 112 -154 0 -4 -13 -15 -29 -24 -37
-22 -181 -128 -230 -170 -20 -17 -88 -83 -151 -148 l-116 -117 -29 25 c-17 13
-102 79 -190 146 -88 66 -164 125 -170 129 -5 4 -35 27 -65 50 -70 54 -68 53
-180 146 -180 151 -170 139 -175 212 -18 245 -197 455 -438 514 -191 48 -415
-18 -548 -161 -217 -231 -210 -589 16 -807 79 -77 190 -136 285 -152 118 -20
267 -1 360 46 22 11 45 20 53 20 14 0 108 -36 195 -76 29 -13 54 -24 56 -24 2
0 89 -41 192 -91 233 -112 387 -183 436 -198 l37 -12 -26 -42 c-71 -113 -186
-377 -224 -517 -7 -25 -13 -47 -14 -50 -1 -3 -7 -33 -15 -68 -7 -34 -15 -64
-19 -66 -3 -2 -35 0 -71 5 -75 9 -292 30 -365 34 -27 2 -79 5 -115 9 -36 3
-105 8 -155 11 -49 3 -108 8 -130 10 -22 3 -71 7 -110 10 -77 6 -195 20 -295
35 -36 5 -80 12 -99 14 -19 3 -38 11 -43 19 -60 109 -207 223 -348 273 -121
42 -311 40 -432 -6 -221 -82 -382 -275 -423 -505 -12 -69 -12 -214 1 -245 3
-8 8 -26 10 -40 2 -14 9 -36 15 -50 93 -217 231 -346 434 -410 78 -24 232 -33
300 -18 22 6 51 12 64 14 36 7 145 59 193 92 68 46 139 121 187 195 24 37 51
67 60 68 17 1 18 1 101 18 30 6 69 13 85 15 17 3 44 7 60 9 87 15 221 34 305
43 25 3 74 9 110 14 36 5 83 11 105 14 37 4 163 23 210 31 11 2 31 6 45 9 14
3 36 8 50 10 14 3 66 14 115 25 50 11 93 21 97 21 4 0 6 -51 5 -112 -5 -350
75 -693 235 -1012 31 -62 37 -81 26 -87 -7 -5 -16 -9 -21 -9 -4 0 -94 -48
-200 -107 -105 -59 -205 -113 -222 -121 -16 -8 -38 -22 -49 -31 -10 -9 -21
-16 -25 -15 -3 1 -56 -23 -118 -52 l-112 -54 -67 21 c-122 38 -253 21 -364
-46 -292 -178 -274 -617 31 -767 84 -41 120 -49 208 -48 246 3 448 218 436
464 -2 33 5 43 74 107 99 92 124 114 196 174 32 28 67 57 76 65 9 8 43 38 75
65 32 28 89 81 127 118 37 38 72 67 76 65 5 -2 35 -36 66 -76 87 -114 235
-269 320 -337 20 -16 42 -35 49 -40 6 -6 52 -40 103 -76 l92 -66 -71 -109
c-64 -98 -234 -352 -314 -469 -17 -25 -43 -59 -57 -74 -14 -16 -30 -37 -36
-47 -26 -46 -40 -55 -88 -60 -26 -2 -57 -8 -68 -11 -11 -4 -22 -7 -25 -8 -28
-5 -94 -34 -141 -62 -188 -112 -308 -373 -267 -578 5 -22 10 -51 13 -65 9 -43
84 -183 118 -220 116 -127 260 -194 423 -199 259 -7 493 169 568 427 23 81 15
278 -13 337 -6 11 -17 36 -25 55 -8 19 -23 47 -32 61 -17 26 -16 30 30 165 27
76 95 257 152 401 57 145 104 266 104 271 1 30 18 31 86 6 128 -47 256 -87
318 -98 16 -3 52 -10 80 -15 87 -18 109 -21 191 -27 44 -4 83 -11 86 -17 4 -5
3 -22 -1 -36 -5 -14 -12 -51 -15 -81 -4 -30 -9 -64 -11 -75 -2 -11 -6 -44 -10
-74 -3 -30 -7 -62 -9 -72 -2 -10 -6 -49 -10 -86 -3 -37 -8 -79 -11 -93 -2 -14
-7 -47 -9 -75 -5 -51 -24 -210 -30 -255 -2 -14 -6 -50 -10 -80 -3 -30 -8 -66
-10 -80 -3 -14 -7 -38 -9 -55 -6 -41 -35 -204 -41 -235 -2 -14 -7 -37 -10 -52
-4 -16 -20 -35 -41 -47 -99 -59 -225 -207 -255 -300 -6 -20 -16 -42 -22 -49
-5 -6 -7 -12 -3 -12 3 0 1 -12 -4 -26 -34 -89 -26 -279 17 -394 80 -215 248
-360 483 -418 14 -4 79 -7 145 -7 130 0 178 11 290 67 217 108 355 333 357
582 1 221 -107 424 -294 550 -56 38 -56 39 -63 100 -4 33 -9 70 -11 81 -9 42
-17 110 -29 240 -3 28 -7 73 -10 100 -3 28 -8 84 -11 125 -3 41 -7 91 -9 110
-2 19 -7 73 -11 120 -3 47 -8 93 -10 104 -2 10 -6 44 -10 75 -3 31 -8 59 -10
62 -2 4 -6 24 -10 45 -8 54 -31 183 -39 222 l-7 32 48 1 c27 0 58 2 69 4 11 2
43 7 70 11 28 3 52 7 55 9 3 2 24 6 48 10 108 16 323 83 449 140 40 19 74 31
77 27 2 -4 9 -25 16 -47 7 -22 56 -155 110 -295 53 -140 114 -307 135 -371
l37 -117 -26 -54 c-14 -30 -29 -64 -31 -76 -3 -12 -7 -32 -10 -45 -27 -123 19
-275 116 -381 59 -65 139 -109 239 -133 23 -5 142 -4 173 2 152 30 286 156
333 316 14 48 20 156 11 194 -3 11 -8 34 -12 50 -22 93 -126 220 -219 267 -49
25 -130 48 -171 48 -38 0 -91 71 -299 402 -60 96 -215 310 -228 316 -18 8 -4
23 65 69 149 99 227 163 357 295 79 80 98 94 111 85 9 -7 31 -24 50 -39 19
-15 117 -90 219 -168 102 -77 192 -146 200 -153 8 -6 35 -28 60 -47 25 -18 61
-48 81 -65 19 -16 58 -49 85 -72 126 -106 124 -104 129 -163 18 -216 134 -390
321 -481 332 -161 720 23 811 383 13 54 12 208 -3 265 -50 193 -189 346 -369
407 -137 47 -293 40 -424 -20 -55 -25 -90 -30 -107 -16 -5 5 -25 15 -44 22
-19 7 -68 28 -108 46 -41 19 -76 34 -78 34 -2 0 -75 34 -162 76 -246 120 -352
168 -422 194 -36 13 -69 26 -74 31 -4 4 13 42 40 86 100 165 229 480 250 613
7 41 7 41 43 36 20 -3 61 -8 91 -11 30 -4 66 -8 80 -10 39 -5 179 -17 245 -20
33 -2 83 -6 110 -9 28 -3 100 -8 160 -11 61 -4 118 -9 129 -11 10 -2 55 -6
100 -9 44 -3 95 -7 111 -10 17 -2 50 -7 75 -10 79 -9 134 -16 160 -20 14 -2
41 -7 60 -10 19 -3 37 -10 38 -16 2 -5 9 -15 15 -22 7 -6 29 -33 49 -59 116
-143 310 -228 512 -224 286 7 524 186 612 461 43 133 38 295 -14 427 -77 198
-249 353 -452 405 -64 16 -201 21 -270 11 -174 -28 -352 -147 -445 -297 -39
-63 -56 -73 -139 -86 -21 -3 -41 -7 -45 -9 -3 -2 -31 -7 -61 -11 -62 -8 -71
-9 -120 -18 -19 -4 -57 -9 -85 -12 -61 -7 -110 -14 -150 -20 -31 -5 -82 -11
-170 -20 -27 -3 -61 -8 -75 -10 -42 -8 -83 -14 -125 -19 -22 -3 -51 -8 -65
-11 -27 -5 -132 -28 -140 -30 -3 -1 -27 -5 -55 -10 -27 -4 -66 -14 -87 -21
-20 -7 -38 -11 -40 -8 -3 2 -2 25 1 51 19 153 -8 472 -56 658 -8 33 -16 67
-18 75 -16 73 -112 316 -157 397 -19 36 -23 31 61 76 31 16 76 41 101 54 25
14 74 41 110 61 36 20 85 48 110 62 25 14 99 52 165 84 66 32 134 65 151 73
27 14 34 14 65 0 78 -35 207 -38 296 -7 120 42 210 123 265 239 27 57 32 79
34 161 2 72 -1 109 -15 150 -66 198 -236 317 -446 311 -102 -3 -206 -50 -286
-130 -88 -89 -130 -187 -131 -308 l-1 -63 -71 -67 c-75 -71 -177 -161 -236
-209 -19 -16 -37 -31 -40 -35 -3 -3 -32 -29 -65 -56 -33 -28 -88 -78 -123
-112 -34 -33 -66 -61 -70 -61 -4 0 -23 24 -42 53 -103 152 -288 342 -461 472
-57 42 -108 81 -112 85 -13 12 397 627 425 638 4 2 8 8 8 14 0 5 7 16 15 24 8
8 18 21 22 29 5 8 32 17 63 21 231 27 428 200 487 427 70 274 -76 567 -337
673 -76 31 -99 35 -200 39 -107 4 -187 -13 -276 -58 -238 -122 -363 -392 -299
-652 9 -39 48 -129 68 -159 l20 -28 -36 -112 c-19 -62 -79 -221 -131 -355 -53
-133 -96 -244 -96 -245 0 -2 -9 -24 -20 -49 -20 -45 -20 -45 -49 -31 -73 37
-302 110 -406 130 -22 4 -44 8 -50 9 -20 4 -181 26 -224 30 -24 3 -45 6 -46 7
-1 2 4 37 11 78 7 41 16 98 19 125 4 28 8 61 10 75 2 14 7 52 10 85 3 33 8 76
10 95 9 69 26 216 30 260 5 51 14 121 20 150 3 14 7 48 10 75 3 28 7 61 10 75
2 13 7 42 10 65 3 22 8 47 10 55 2 8 7 31 10 50 20 126 23 134 71 164 176 111
294 326 295 538 1 98 -6 146 -35 228 -75 219 -278 392 -501 429 -64 11 -134
18 -138 15z"/>
</g>
</svg>
