<?xml version="1.0" standalone="no"?>
<!DOCTYPE svg PUBLIC "-//W3C//DTD SVG 20010904//EN"
 "http://www.w3.org/TR/2001/REC-SVG-20010904/DTD/svg10.dtd">
<svg version="1.0" xmlns="http://www.w3.org/2000/svg"
 width="1280.000000pt" height="1280.000000pt" viewBox="0 0 1280.000000 1280.000000"
 preserveAspectRatio="xMidYMid meet">
<metadata>
Created by potrace 1.11, written by Peter Selinger 2001-2013
</metadata>
<g transform="translate(0.000000,1280.000000) scale(0.100000,-0.100000)"
fill="#000000" stroke="none">
<path d="M6198 11053 c0 -10 -1 -23 -1 -30 0 -7 -4 -11 -9 -10 -6 1 -13 -4
-16 -12 -3 -9 0 -11 8 -6 7 4 5 -3 -4 -17 -9 -14 -13 -28 -9 -31 3 -4 1 -7 -6
-7 -8 0 -11 -6 -7 -16 4 -11 2 -15 -8 -11 -10 4 -13 1 -9 -8 3 -8 10 -12 16
-8 6 3 7 1 3 -6 -4 -6 -12 -8 -18 -5 -7 5 -9 -1 -5 -15 4 -18 2 -21 -10 -17
-13 5 -14 4 -3 -9 8 -10 9 -15 2 -15 -6 0 -9 -7 -6 -15 3 -8 0 -17 -7 -20 -8
-3 -15 -19 -16 -37 -1 -17 -8 -35 -15 -40 -7 -4 -9 -8 -4 -8 4 0 1 -12 -9 -26
-14 -22 -15 -28 -4 -35 11 -7 10 -9 -3 -9 -11 0 -15 -5 -12 -15 4 -9 0 -15 -7
-15 -11 0 -11 -3 1 -10 11 -7 12 -10 2 -10 -9 0 -11 -7 -7 -20 4 -13 2 -20 -5
-18 -7 2 -15 -3 -17 -9 -3 -7 0 -13 7 -13 6 0 8 -5 5 -10 -5 -8 -12 -7 -23 2
-11 8 -10 5 3 -10 11 -13 15 -23 10 -22 -22 5 -27 -1 -15 -15 15 -18 -1 -20
-19 -2 -11 10 -12 8 -3 -9 13 -25 10 -56 -6 -62 -9 -3 -9 -9 0 -25 10 -19 9
-20 -4 -10 -18 15 -32 5 -18 -12 8 -9 6 -14 -6 -19 -14 -5 -14 -9 -3 -23 12
-14 12 -16 0 -8 -11 6 -13 4 -8 -8 4 -11 1 -17 -9 -17 -8 0 -12 -5 -9 -10 4
-6 12 -8 18 -4 7 3 4 -1 -5 -9 -10 -8 -15 -17 -11 -20 3 -4 1 -7 -6 -7 -7 0
-9 -5 -6 -10 4 -6 1 -18 -6 -26 -6 -8 -9 -17 -6 -21 4 -3 -1 -11 -9 -18 -14
-10 -14 -15 -5 -34 12 -21 11 -22 -11 -10 -20 11 -22 11 -10 -3 9 -11 10 -18
2 -23 -6 -3 -7 -11 -4 -17 5 -7 1 -9 -9 -5 -16 6 -16 5 -1 -18 14 -21 14 -24
2 -20 -9 4 -15 0 -15 -10 0 -8 5 -15 11 -16 6 0 0 -5 -14 -11 -14 -6 -20 -12
-14 -15 12 -4 -8 -57 -26 -68 -5 -3 -5 -18 0 -34 7 -25 6 -29 -8 -24 -10 4
-13 2 -8 -5 4 -7 2 -12 -5 -12 -9 0 -9 -3 0 -14 10 -12 8 -17 -8 -26 -17 -9
-19 -15 -11 -31 8 -15 8 -19 -2 -17 -8 2 -13 -8 -13 -29 0 -26 -2 -30 -15 -20
-8 6 -12 7 -8 3 4 -5 3 -15 -4 -23 -9 -11 -7 -12 8 -7 16 6 16 4 -3 -15 -24
-22 -31 -37 -13 -26 6 3 10 1 10 -4 0 -6 -4 -11 -10 -11 -5 0 -10 -7 -10 -16
0 -8 -4 -13 -8 -10 -5 3 -9 -1 -9 -9 0 -8 4 -12 8 -9 4 2 11 -1 15 -7 4 -7 3
-9 -3 -6 -16 10 -33 -16 -28 -42 3 -15 0 -21 -8 -18 -8 3 -12 -8 -11 -34 0
-34 -1 -37 -15 -27 -9 7 -13 9 -9 4 4 -5 3 -17 -3 -27 -7 -13 -6 -19 1 -19 6
0 8 -5 5 -10 -4 -6 -12 -7 -18 -3 -7 4 -5 -2 3 -12 14 -17 13 -18 -3 -12 -15
6 -16 4 -7 -13 7 -13 7 -21 -1 -25 -6 -4 -8 -14 -5 -22 4 -9 2 -11 -6 -7 -8 5
-9 2 -4 -11 5 -14 4 -15 -7 -7 -10 8 -13 6 -13 -8 0 -10 4 -17 7 -14 4 2 11 0
14 -6 4 -6 3 -10 -2 -9 -19 3 -33 -2 -33 -12 0 -5 5 -7 11 -4 6 4 5 -2 -2 -13
-7 -12 -18 -18 -24 -15 -5 3 -4 0 3 -8 17 -19 15 -32 -4 -25 -14 5 -15 4 -5
-8 9 -11 8 -15 -5 -20 -13 -5 -14 -9 -4 -21 10 -12 9 -16 -4 -21 -13 -5 -14
-10 -4 -27 11 -21 10 -21 -8 -7 -10 8 -16 11 -12 6 4 -5 1 -18 -7 -28 -7 -11
-11 -27 -8 -36 4 -10 2 -13 -5 -8 -8 5 -10 2 -6 -8 3 -9 11 -13 17 -9 6 4 7 1
3 -6 -5 -7 -13 -10 -20 -8 -6 3 -12 -3 -13 -12 -3 -71 -8 -91 -21 -86 -7 2
-10 1 -7 -4 3 -5 1 -13 -5 -16 -6 -4 -8 -16 -4 -27 5 -16 3 -19 -7 -12 -12 6
-12 5 -1 -8 10 -13 10 -18 1 -24 -8 -5 -9 -3 -4 6 5 9 4 11 -4 6 -6 -4 -11
-13 -10 -19 4 -30 -2 -48 -13 -41 -6 4 -8 3 -4 -4 3 -6 2 -13 -3 -16 -4 -3 -9
-17 -10 -31 -3 -50 -5 -56 -16 -52 -6 3 -11 -3 -12 -12 -4 -56 -10 -76 -23
-73 -11 3 -11 0 1 -14 8 -10 9 -15 2 -11 -6 4 -15 2 -19 -4 -4 -7 -3 -9 3 -6
6 4 13 -2 16 -12 3 -13 0 -18 -8 -15 -7 3 -15 -2 -19 -11 -3 -9 -2 -13 4 -10
6 3 10 2 10 -3 0 -6 -8 -13 -17 -16 -15 -6 -15 -8 -3 -16 13 -8 12 -10 -3 -10
-15 0 -16 -3 -7 -20 8 -16 8 -20 -2 -18 -7 2 -14 -8 -16 -22 -2 -14 -9 -31
-15 -39 -10 -12 -9 -13 1 -7 12 7 12 4 1 -15 -7 -13 -12 -28 -11 -33 2 -5 -3
-6 -10 -3 -8 3 -14 -2 -14 -14 0 -14 3 -16 15 -6 12 10 13 9 3 -9 -6 -12 -8
-25 -4 -29 4 -5 1 -5 -5 -1 -7 4 -13 2 -13 -4 0 -6 -5 -8 -12 -4 -10 6 -10 4
0 -8 10 -13 10 -17 -4 -22 -14 -5 -14 -9 -3 -23 12 -14 12 -16 0 -8 -11 6 -13
4 -8 -8 4 -11 1 -17 -9 -17 -8 0 -12 -5 -9 -10 4 -6 10 -8 15 -5 4 3 3 -6 -3
-19 -7 -13 -15 -22 -19 -20 -3 2 -9 0 -13 -6 -3 -5 -2 -10 2 -10 5 0 9 -9 9
-19 0 -14 -4 -17 -12 -11 -16 14 -26 -1 -12 -18 10 -11 8 -18 -10 -32 -12 -10
-22 -21 -22 -25 0 -4 6 -2 14 4 11 9 16 9 22 0 4 -7 3 -9 -3 -6 -12 8 -27 -38
-18 -53 3 -6 -1 -7 -9 -4 -9 3 -13 11 -9 17 3 6 1 7 -6 3 -9 -6 -9 -11 -1 -21
8 -9 8 -15 0 -20 -6 -3 -8 -11 -5 -16 4 -5 1 -9 -5 -9 -7 0 -10 -7 -6 -15 8
-21 -3 -45 -21 -45 -8 0 -11 -5 -8 -10 4 -6 12 -8 18 -4 7 3 3 -1 -7 -10 -15
-12 -17 -18 -7 -30 10 -12 8 -14 -11 -9 -23 4 -23 4 -3 -13 15 -12 16 -15 4
-11 -9 3 -27 -2 -40 -10 -12 -9 -19 -11 -15 -5 4 7 1 12 -9 12 -9 0 -13 -5 -9
-11 4 -7 -2 -6 -17 1 -17 10 -24 10 -27 1 -2 -6 -8 -11 -13 -11 -6 0 -8 4 -4
9 3 5 1 13 -5 16 -6 4 -9 1 -8 -7 2 -7 -3 -11 -12 -9 -8 2 -23 3 -32 3 -10 0
-18 5 -19 11 0 7 -5 1 -10 -12 -9 -23 -10 -23 -29 -6 -12 11 -20 13 -20 6 0
-9 -5 -9 -20 -1 -14 8 -20 8 -20 0 0 -8 -6 -8 -20 0 -14 8 -20 8 -20 0 0 -7
-7 -7 -21 1 -12 6 -19 7 -15 1 3 -5 -1 -13 -10 -16 -8 -3 -12 -2 -9 4 3 6 3
10 -2 11 -4 0 -16 2 -27 4 -26 5 -47 -5 -39 -19 4 -6 0 -6 -9 2 -13 10 -17 10
-20 0 -4 -10 -8 -11 -20 -1 -8 7 -18 9 -22 5 -11 -11 -50 -9 -58 3 -5 6 -8 4
-9 -5 0 -10 -3 -8 -9 5 l-9 20 0 -20 c-1 -17 -3 -18 -11 -5 -9 13 -11 13 -20
0 -9 -13 -10 -13 -10 0 0 13 -1 13 -10 0 -8 -12 -10 -12 -16 3 -6 16 -7 17
-19 1 -11 -16 -13 -16 -22 0 -10 17 -10 17 -17 0 -7 -18 -8 -18 -21 -1 -12 17
-13 17 -19 0 -6 -15 -8 -15 -16 -3 -8 12 -10 12 -10 1 0 -11 -3 -11 -15 -1 -8
6 -20 8 -27 4 -25 -16 -51 -15 -44 1 3 8 3 15 0 15 -2 0 -9 -10 -14 -22 -7
-19 -9 -19 -9 -5 -1 10 -6 15 -11 12 -6 -4 -8 -10 -6 -14 3 -4 -5 -6 -17 -5
-12 1 -26 3 -31 3 -5 1 -2 9 5 19 11 13 8 13 -9 -3 -19 -16 -27 -17 -42 -7
-17 10 -18 9 -13 -6 6 -16 5 -15 -21 2 -16 10 -26 14 -22 8 3 -5 -1 -12 -8
-15 -9 -4 -17 1 -19 11 -4 15 -5 15 -6 -1 -1 -14 -5 -16 -20 -7 -11 5 -22 6
-25 1 -6 -9 -49 -7 -67 5 -8 4 -9 3 -5 -4 4 -7 2 -12 -3 -12 -6 0 -11 5 -11
10 0 7 -6 7 -18 1 -11 -6 -24 -6 -36 1 -12 7 -17 7 -12 0 3 -5 -1 -13 -10 -16
-8 -3 -12 -2 -9 4 3 6 -1 10 -9 10 -8 0 -18 -4 -21 -10 -8 -13 -25 -13 -25 1
0 5 6 7 13 3 6 -4 9 -3 4 1 -9 11 -48 14 -41 4 2 -4 0 -10 -6 -14 -5 -3 -10
-1 -10 6 0 8 -5 7 -17 -2 -11 -10 -14 -10 -9 -1 4 6 3 12 -1 12 -5 0 -15 -6
-22 -12 -11 -10 -13 -10 -7 0 9 16 -6 16 -22 0 -10 -10 -15 -10 -22 1 -7 12
-11 12 -24 2 -11 -9 -16 -10 -16 -2 0 6 -5 11 -11 11 -5 0 -8 -4 -5 -8 2 -4
-4 -8 -15 -8 -10 0 -19 4 -19 9 0 5 -6 4 -14 -2 -11 -9 -15 -9 -19 1 -4 10
-10 8 -21 -6 -13 -16 -16 -17 -16 -4 0 11 -8 15 -24 14 -13 0 -22 -4 -19 -8 2
-5 -1 -8 -6 -8 -6 0 -11 5 -11 12 0 9 -3 9 -12 0 -16 -16 -31 -15 -22 1 5 8 2
8 -9 -2 -10 -7 -17 -9 -17 -3 0 11 -18 11 -36 -1 -6 -3 -14 -3 -18 0 -10 11
-37 12 -30 2 3 -5 10 -6 16 -3 7 4 8 2 4 -4 -8 -13 -36 -5 -36 10 0 5 -5 6
-10 3 -6 -4 -7 -11 -4 -17 4 -5 -5 -3 -19 6 -24 16 -26 16 -42 -6 -13 -17 -16
-18 -11 -4 4 13 2 17 -8 13 -7 -3 -19 0 -25 6 -9 9 -10 7 -5 -8 7 -17 6 -18
-8 -7 -13 10 -17 10 -21 0 -4 -10 -6 -10 -6 0 -1 6 -6 12 -12 12 -5 0 -7 -5
-3 -11 3 -6 -9 -3 -27 7 -32 16 -33 16 -20 0 12 -15 12 -17 0 -14 -8 2 -17 10
-21 18 -5 12 -7 12 -7 -3 -1 -15 -5 -16 -21 -7 -15 8 -20 8 -20 -2 0 -9 -3 -9
-10 2 -6 10 -10 11 -10 3 0 -7 -5 -13 -11 -13 -5 0 -7 5 -3 12 4 6 3 8 -4 4
-6 -3 -14 -1 -18 5 -4 8 -11 4 -20 -12 -11 -20 -13 -21 -14 -5 0 17 -2 17 -24
2 -18 -11 -27 -13 -32 -4 -5 7 -3 8 6 3 9 -6 11 -4 6 4 -6 9 -13 8 -28 -6 -20
-18 -21 -18 -13 6 6 21 5 22 -8 10 -8 -8 -12 -18 -9 -24 2 -5 -1 -4 -9 3 -15
14 -33 17 -25 4 3 -5 -1 -9 -9 -9 -8 0 -12 4 -9 8 7 12 -50 6 -58 -6 -4 -6 -8
-1 -9 10 l0 20 -9 -20 c-6 -13 -9 -15 -9 -5 -1 13 -2 13 -11 0 -5 -8 -10 -10
-10 -3 0 13 -18 12 -39 -2 -10 -5 -16 -4 -19 4 -3 9 -7 9 -18 0 -11 -9 -14 -8
-14 2 0 9 -3 10 -8 4 -8 -12 -54 -16 -47 -4 5 7 -45 2 -53 -6 -2 -2 -14 0 -27
5 -14 5 -26 5 -33 -2 -8 -8 -15 -8 -26 1 -11 9 -16 9 -22 0 -5 -8 -3 -9 6 -4
9 6 11 4 5 -5 -6 -10 -11 -9 -22 5 -7 11 -13 14 -13 9 0 -5 -11 -11 -25 -12
-14 -1 -25 3 -25 9 0 5 -5 7 -10 4 -6 -4 -8 -11 -5 -16 9 -14 -2 -11 -19 7
-15 14 -16 14 -16 -2 0 -16 -1 -16 -16 2 -8 10 -12 13 -8 5 5 -11 3 -13 -9 -8
-10 3 -17 3 -17 -2 0 -12 -36 -6 -54 8 -14 12 -16 12 -11 -2 4 -8 1 -18 -6
-23 -8 -4 -10 -3 -5 4 4 7 1 12 -6 13 -20 1 -70 1 -98 -2 -14 -1 -34 2 -44 6
-14 6 -17 5 -12 -4 6 -8 0 -10 -20 -7 -15 3 -33 1 -40 -5 -9 -7 -15 -5 -23 8
-10 17 -10 17 -11 -2 -1 -12 -4 -15 -7 -7 -4 10 -8 10 -21 0 -9 -8 -13 -8 -9
-2 4 7 0 14 -8 18 -8 3 -17 0 -21 -6 -5 -7 -2 -8 7 -3 8 5 10 4 6 0 -13 -15
-39 -15 -33 0 3 8 0 17 -6 21 -6 4 -8 3 -5 -2 3 -6 2 -16 -4 -24 -7 -13 -9
-13 -9 0 0 13 -1 13 -10 0 -7 -10 -10 -11 -10 -2 0 11 -12 12 -60 0 -9 -2 -14
3 -12 12 3 12 0 12 -15 -1 -10 -9 -25 -14 -33 -11 -13 4 -13 3 -1 -11 16 -20
2 -23 -19 -5 -12 11 -12 10 -1 -4 9 -13 21 -16 40 -12 25 6 25 6 6 -9 -20 -16
-20 -16 2 -10 19 4 22 2 18 -18 -4 -17 -2 -20 7 -11 18 18 28 14 28 -10 0 -19
2 -20 10 -8 9 13 14 8 12 -11 -1 -4 9 -4 21 -1 20 5 21 4 7 -14 -8 -10 -11
-16 -6 -12 4 4 17 -2 28 -12 11 -10 26 -16 34 -13 8 3 14 -1 14 -11 0 -9 5
-16 11 -16 5 0 7 6 3 13 -4 7 -3 9 2 4 5 -5 9 -14 9 -20 0 -7 8 -11 18 -9 12
2 15 -2 11 -13 -4 -9 -3 -15 2 -13 17 5 56 -24 50 -37 -3 -10 0 -12 11 -8 10
4 14 2 10 -4 -5 -7 0 -9 13 -6 12 3 20 0 20 -6 0 -7 5 -9 12 -5 10 6 10 4 0
-8 -12 -14 -10 -16 10 -11 18 4 20 3 8 -6 -12 -9 -11 -11 8 -11 14 0 22 -6 22
-17 0 -15 2 -16 10 -3 9 13 10 13 11 0 1 -8 1 -19 0 -23 -1 -5 3 -6 9 -2 5 3
10 1 10 -4 0 -6 9 -11 20 -11 12 0 20 -7 20 -17 0 -15 2 -16 10 -3 8 13 10 12
10 -2 0 -10 7 -18 16 -18 8 0 12 -4 9 -10 -3 -5 0 -10 9 -10 8 0 17 6 20 13 3
6 4 3 3 -8 -1 -13 3 -19 12 -17 12 3 12 1 1 -13 -12 -14 -12 -16 1 -15 7 1 23
2 34 1 17 -1 18 -3 5 -11 -12 -8 -10 -10 9 -10 16 0 21 -4 18 -14 -4 -9 0 -12
13 -9 12 3 20 -2 25 -16 3 -12 12 -21 18 -21 7 0 19 -9 27 -20 11 -15 17 -17
29 -7 12 10 13 9 6 -2 -6 -11 -4 -13 8 -8 9 3 16 3 14 -1 -1 -4 6 -18 16 -32
11 -15 17 -19 17 -10 0 13 1 13 9 0 6 -8 7 -18 5 -22 -3 -5 0 -7 8 -6 7 2 12
-3 10 -11 -3 -12 0 -12 12 -2 13 11 17 9 27 -13 10 -22 15 -24 27 -13 11 8 14
8 9 0 -4 -6 -3 -14 2 -18 6 -3 9 -11 7 -18 -1 -7 -1 -9 1 -4 3 4 11 7 19 7 9
0 12 -5 8 -12 -5 -8 -2 -9 9 -5 13 5 17 1 17 -16 0 -18 2 -19 10 -7 8 13 10
13 10 -1 0 -9 10 -19 21 -22 15 -4 20 -11 15 -23 -5 -14 -4 -15 9 -4 12 10 15
10 15 -4 0 -14 11 -21 33 -17 4 0 7 -6 7 -14 0 -8 7 -15 16 -15 9 0 12 -5 8
-12 -4 -6 -3 -8 3 -5 6 4 16 0 23 -8 8 -10 21 -13 34 -9 21 6 21 6 1 -10 -11
-9 -15 -16 -10 -15 25 3 45 -2 45 -12 0 -5 -5 -7 -12 -3 -7 4 -8 3 -4 -5 4 -6
11 -9 16 -6 4 3 16 2 25 -1 13 -6 14 -9 3 -16 -9 -7 -6 -8 10 -5 13 3 21 3 18
0 -5 -6 18 -33 29 -33 13 0 34 -28 27 -36 -4 -5 2 -2 12 6 13 10 17 10 12 3
-4 -8 -1 -13 8 -13 9 0 16 -5 16 -11 0 -5 -4 -7 -10 -4 -16 10 -11 -1 7 -16
14 -12 16 -12 9 0 -6 9 -5 12 5 9 8 -3 13 -10 12 -16 -2 -7 4 -9 14 -5 12 5
14 3 8 -7 -6 -10 -4 -12 8 -7 12 4 14 2 10 -11 -6 -15 -5 -16 13 -2 10 8 16
10 12 6 -10 -11 49 -69 62 -61 5 3 11 -4 15 -15 3 -11 11 -20 16 -20 6 0 7 6
4 13 -4 6 0 4 8 -5 8 -10 18 -14 23 -10 4 4 2 -1 -5 -11 -8 -9 -11 -20 -7 -24
3 -3 6 -1 6 5 0 15 33 -3 68 -36 13 -13 30 -21 38 -18 8 3 11 0 8 -8 -3 -7 3
-19 13 -27 17 -13 17 -13 4 6 -8 11 -1 7 15 -10 16 -16 28 -33 27 -36 -1 -4 7
-5 17 -2 15 4 20 0 20 -16 0 -11 5 -21 11 -21 5 0 7 5 4 10 -3 6 -2 10 4 10 5
0 13 -9 16 -20 4 -11 11 -18 16 -15 5 4 9 1 9 -5 0 -6 5 -8 12 -4 7 5 9 0 6
-14 -5 -19 -4 -20 14 -11 11 6 22 8 26 5 3 -3 0 -6 -7 -6 -8 0 -7 -5 4 -16 8
-9 22 -13 30 -10 9 3 12 0 8 -10 -3 -8 1 -14 11 -14 9 0 16 -4 16 -9 0 -10 39
-27 52 -23 5 1 7 -1 7 -6 -1 -4 -1 -15 0 -26 1 -16 3 -17 18 -5 9 8 14 10 11
4 -6 -10 7 -27 27 -36 6 -2 9 -10 9 -16 -1 -7 3 -10 8 -7 5 3 16 -2 24 -12 14
-18 14 -18 7 0 -4 13 -3 17 5 12 7 -4 12 -14 12 -22 0 -8 3 -13 8 -13 25 4 34
-2 23 -15 -10 -12 -8 -13 8 -9 13 3 21 1 21 -6 0 -7 5 -9 10 -6 6 4 10 3 9 -2
-4 -22 2 -32 16 -27 14 6 20 -6 16 -29 -1 -5 3 -6 9 -2 6 3 8 11 5 16 -4 5 -1
9 4 9 6 0 11 -9 11 -21 0 -11 5 -17 10 -14 6 3 10 1 10 -6 0 -9 3 -9 14 0 12
10 13 8 9 -8 -5 -19 4 -26 30 -22 4 0 7 -4 7 -10 0 -5 5 -7 10 -4 6 3 10 1 10
-5 0 -6 7 -18 15 -26 12 -12 15 -12 16 -2 0 7 4 3 9 -9 5 -13 17 -23 26 -23
10 0 15 -3 11 -6 -10 -10 36 -42 52 -36 9 3 12 1 7 -6 -4 -7 -1 -12 9 -12 9 0
13 -4 10 -10 -3 -5 3 -10 13 -10 11 0 25 -7 32 -15 7 -8 16 -12 21 -9 5 3 6
-1 3 -9 -3 -8 0 -18 7 -23 8 -4 10 -3 5 4 -5 8 -2 10 9 6 11 -4 12 -10 6 -18
-7 -8 -4 -12 10 -13 12 -1 17 3 13 9 -4 7 -2 8 4 4 6 -4 9 -13 5 -22 -3 -9 0
-14 8 -12 8 2 13 -3 11 -11 -3 -12 -1 -12 14 0 15 12 17 12 9 0 -6 -11 -4 -13
7 -8 22 8 30 -3 15 -21 -8 -10 -8 -13 -1 -9 7 4 14 0 18 -8 3 -8 12 -12 21 -9
10 4 15 0 15 -12 0 -16 2 -17 10 -4 9 13 10 13 11 0 1 -8 1 -19 0 -23 -1 -5 3
-6 8 -3 5 3 12 -1 15 -10 4 -9 2 -13 -5 -8 -8 4 -9 -1 -4 -16 4 -14 3 -20 -3
-16 -5 3 -9 -6 -7 -23 2 -23 -1 -28 -14 -23 -13 4 -12 0 4 -18 11 -13 15 -20
9 -17 -7 4 -18 -1 -25 -10 -10 -12 -10 -14 -1 -9 6 4 12 2 12 -4 0 -6 -7 -13
-16 -17 -15 -6 -15 -8 2 -21 17 -13 17 -14 1 -9 -15 6 -17 1 -14 -27 3 -26 1
-33 -10 -29 -9 4 -11 0 -7 -11 4 -9 3 -16 -2 -14 -5 2 -10 -1 -12 -7 -1 -5 2
-10 7 -10 5 0 13 -4 18 -9 4 -5 3 -6 -3 -3 -16 9 -32 -12 -36 -48 -2 -17 -8
-29 -15 -28 -7 2 -10 -4 -7 -12 4 -8 11 -12 18 -8 8 5 8 3 -1 -8 -6 -8 -11
-17 -10 -21 1 -3 -2 -10 -7 -15 -5 -5 -6 -3 -2 4 5 9 2 11 -10 6 -15 -6 -15
-7 0 -15 13 -8 15 -13 5 -24 -6 -7 -9 -20 -6 -28 4 -10 1 -13 -8 -10 -9 4 -13
-3 -11 -25 1 -17 -2 -27 -7 -24 -6 4 -7 -6 -3 -23 5 -23 4 -26 -5 -14 -9 12
-10 11 -6 -7 3 -13 1 -23 -5 -23 -5 0 -7 -4 -3 -9 3 -5 0 -13 -6 -17 -8 -4 -7
-9 2 -16 10 -7 8 -8 -9 -5 -18 4 -21 2 -13 -7 7 -9 7 -16 -2 -26 -8 -9 -8 -11
0 -6 13 7 12 -19 -2 -31 -4 -4 -5 -2 0 6 6 10 4 12 -4 7 -9 -6 -9 -11 0 -22 9
-12 9 -13 -2 -9 -10 4 -15 -1 -15 -15 0 -11 5 -20 11 -20 5 0 2 -5 -7 -11 -11
-6 -15 -16 -11 -26 4 -10 2 -14 -4 -10 -7 5 -9 -1 -5 -15 3 -14 1 -19 -6 -14
-8 5 -10 1 -5 -10 5 -13 3 -15 -7 -9 -9 5 -11 4 -6 -4 4 -6 2 -19 -6 -28 -7
-9 -8 -14 -2 -10 7 4 14 0 17 -8 4 -10 1 -12 -10 -8 -10 4 -14 2 -10 -4 4 -6
1 -13 -5 -16 -10 -3 -9 -8 2 -22 9 -11 10 -16 3 -11 -12 6 -15 1 -12 -21 0 -4
-8 -10 -18 -14 -17 -7 -17 -8 0 -8 16 -1 26 -21 10 -21 -5 0 -13 -11 -20 -25
-6 -14 -7 -23 -2 -19 5 3 6 -2 3 -10 -3 -9 -10 -13 -15 -10 -5 3 -4 -7 1 -22
9 -22 8 -25 -3 -16 -10 8 -13 5 -15 -15 -1 -14 -7 -32 -12 -39 -8 -9 -7 -14 1
-20 8 -5 9 -3 4 6 -5 9 -4 11 4 6 6 -4 9 -12 5 -17 -3 -5 -10 -6 -16 -3 -7 5
-9 0 -6 -14 5 -16 2 -22 -10 -22 -13 0 -12 -3 4 -15 18 -14 18 -14 -4 -10 -20
4 -22 2 -12 -10 8 -10 9 -15 2 -15 -6 0 -9 -6 -6 -14 3 -8 0 -17 -5 -21 -6 -3
-9 -11 -6 -16 4 -5 2 -9 -4 -9 -6 0 -7 -7 -4 -17 5 -12 3 -14 -8 -8 -12 8 -12
6 0 -8 7 -9 11 -18 7 -18 -3 -1 -10 -2 -15 -3 -5 0 -13 -5 -18 -10 -4 -5 -3
-6 3 -3 7 4 15 0 18 -9 3 -9 2 -12 -4 -9 -7 4 -9 -3 -6 -19 3 -14 0 -28 -5
-32 -6 -3 -8 -13 -4 -21 5 -14 3 -14 -12 -2 -12 10 -15 10 -9 1 4 -7 2 -20 -5
-28 -10 -12 -9 -13 7 -8 18 5 18 5 0 -10 -11 -9 -16 -16 -10 -16 5 0 2 -5 -6
-10 -11 -7 -11 -10 -2 -10 7 0 10 -5 7 -10 -4 -6 -11 -7 -17 -4 -6 4 -8 2 -4
-4 3 -5 3 -12 -1 -15 -5 -2 -2 -2 5 -1 6 2 12 -1 12 -6 0 -6 -5 -10 -10 -10
-6 0 -9 -6 -8 -12 2 -7 -2 -12 -9 -11 -7 2 -10 -4 -7 -12 4 -8 11 -12 17 -8 6
4 7 1 3 -6 -5 -7 -15 -10 -25 -6 -12 5 -13 4 -4 -6 8 -8 9 -18 2 -31 -5 -10
-7 -23 -4 -28 3 -6 1 -10 -5 -10 -6 0 -9 -4 -6 -9 10 -15 -5 -41 -23 -42 -13
0 -12 -2 3 -8 18 -7 18 -8 2 -14 -16 -6 -16 -10 -5 -24 12 -14 12 -16 0 -8
-11 6 -13 3 -9 -13 4 -15 2 -19 -9 -15 -7 3 -13 2 -12 -3 5 -27 -2 -84 -10
-80 -5 4 -8 -5 -6 -20 2 -19 -1 -24 -13 -19 -12 4 -13 3 -2 -10 8 -10 9 -15 2
-15 -7 0 -9 -7 -5 -17 4 -10 2 -14 -4 -10 -7 5 -9 -1 -5 -15 4 -16 2 -19 -8
-13 -9 6 -11 4 -5 -6 5 -7 10 -22 10 -31 2 -17 1 -17 -19 -1 -20 17 -20 17 -7
1 11 -15 11 -21 1 -33 -7 -9 -10 -18 -6 -22 3 -3 6 0 6 7 0 7 2 11 5 8 8 -8
-6 -38 -16 -33 -4 3 -6 -4 -4 -15 3 -13 -2 -20 -13 -21 -14 0 -13 -2 3 -9 11
-5 14 -9 7 -9 -7 -1 -11 -5 -7 -10 3 -5 -2 -17 -11 -25 -11 -12 -12 -16 -2
-16 10 0 9 -3 -2 -10 -13 -9 -13 -11 0 -20 12 -8 10 -10 -10 -10 -14 0 -20 -4
-15 -8 18 -13 17 -35 -1 -28 -14 5 -15 4 -4 -9 10 -12 10 -15 -1 -15 -12 0
-12 -2 -1 -9 11 -6 10 -10 -3 -15 -15 -5 -15 -9 -4 -23 12 -14 12 -16 0 -8
-11 6 -13 4 -8 -9 4 -9 3 -14 -2 -11 -5 3 -12 1 -16 -5 -3 -5 -2 -10 4 -10 6
0 8 -7 5 -15 -4 -8 -11 -12 -16 -9 -6 4 -5 -2 1 -14 7 -14 8 -21 0 -24 -13 -4
-19 -40 -8 -54 5 -7 3 -11 -6 -11 -8 0 -12 4 -9 9 3 4 0 8 -5 8 -14 0 -14 -17
-1 -25 6 -4 8 -11 4 -16 -3 -5 -9 -7 -13 -5 -4 3 -8 -1 -8 -9 0 -8 3 -12 7
-10 3 2 6 -5 6 -15 0 -12 -5 -16 -16 -12 -8 3 -12 1 -7 -3 4 -5 -1 -17 -10
-28 -10 -11 -12 -17 -5 -13 16 9 16 -6 0 -23 -10 -11 -10 -12 -1 -7 18 10 4
-25 -16 -42 -14 -12 -14 -13 1 -8 12 3 15 1 11 -10 -3 -8 -11 -13 -18 -10 -10
3 -11 -2 -5 -24 6 -22 5 -28 -5 -24 -14 6 -15 -12 -2 -33 6 -9 3 -11 -9 -6
-14 5 -15 3 -5 -15 10 -19 9 -21 -6 -15 -10 3 -15 3 -11 -2 4 -4 2 -15 -5 -23
-8 -11 -8 -14 0 -9 6 4 14 3 18 -3 3 -5 -1 -10 -9 -10 -8 0 -18 -5 -22 -12 -5
-7 -3 -8 7 -3 12 7 12 6 1 -7 -10 -13 -10 -17 0 -21 9 -4 8 -6 -3 -6 -9 -1
-23 -9 -30 -19 -11 -14 -11 -15 1 -4 18 16 27 15 27 -2 0 -8 -5 -14 -11 -13
-6 1 -11 -10 -11 -26 1 -18 -4 -27 -15 -27 -9 0 -11 -3 -5 -8 16 -12 16 -32 0
-38 -12 -5 -12 -10 -3 -27 10 -20 9 -21 -5 -9 -13 11 -15 10 -10 -8 3 -12 1
-20 -5 -18 -5 2 -9 -1 -8 -7 0 -5 8 -9 16 -7 11 2 10 -1 -4 -12 -11 -9 -15
-20 -10 -28 6 -10 4 -10 -9 1 -15 12 -17 12 -11 -4 6 -14 4 -16 -6 -10 -9 5
-11 4 -6 -4 4 -6 12 -9 17 -6 5 4 9 2 9 -3 0 -5 -10 -14 -22 -21 -16 -8 -17
-10 -4 -6 17 5 17 3 5 -12 -9 -11 -10 -14 -1 -9 16 9 16 -6 0 -23 -11 -10 -10
-11 5 -6 9 4 17 11 17 17 0 5 5 6 12 2 7 -5 9 -2 5 9 -4 11 1 17 16 19 12 2
21 10 19 17 -2 8 3 11 13 8 8 -4 15 -1 15 5 0 6 3 8 6 5 4 -4 17 5 29 19 13
15 28 23 34 20 6 -4 11 -2 11 4 0 6 5 8 10 5 6 -4 10 -3 9 2 -3 20 2 25 15 14
11 -9 14 -8 12 6 0 11 5 18 16 17 11 -1 15 5 13 18 -4 17 -2 18 11 7 13 -11
15 -10 12 5 -2 13 4 20 22 23 13 2 28 10 33 18 4 8 15 11 24 8 12 -5 14 -3 8
7 -6 10 -4 12 10 6 15 -5 16 -4 6 8 -10 12 -8 14 13 12 16 -2 23 1 19 7 -4 6
0 8 10 4 11 -4 14 -2 11 7 -3 8 -1 17 5 21 6 3 11 1 11 -4 0 -6 4 -11 10 -11
5 0 7 7 3 16 -4 10 1 17 16 21 12 3 18 10 14 17 -4 6 2 4 12 -4 10 -8 16 -10
13 -5 -4 6 -3 17 3 25 6 10 9 11 9 3 0 -7 5 -13 11 -13 7 0 9 9 6 21 -4 16 -3
18 9 8 14 -11 20 -1 15 25 -1 5 6 3 15 -5 10 -8 15 -9 11 -3 -4 7 2 14 14 17
12 3 18 10 14 16 -4 7 0 8 11 4 14 -5 16 -3 11 10 -5 15 -3 16 12 7 14 -7 22
-5 32 8 13 16 12 16 -6 3 -11 -7 -4 1 15 18 19 17 41 29 48 26 8 -3 10 0 6 7
-5 7 -2 9 8 5 10 -3 15 0 14 11 -1 11 6 17 21 16 15 -1 20 3 15 14 -4 12 -1
14 13 8 11 -4 16 -4 13 0 -11 10 40 47 57 41 9 -4 12 0 10 14 -3 16 -1 18 9
10 10 -8 16 -8 25 2 6 8 7 18 3 22 -4 5 -2 5 5 2 6 -4 18 -4 27 -1 14 5 14 9
4 22 -11 14 -10 14 7 5 16 -9 24 -7 46 16 14 15 34 31 43 34 11 4 14 12 10 19
-6 9 -3 9 9 0 14 -12 16 -11 12 7 -3 18 -1 20 16 11 10 -6 19 -7 18 -3 -3 19
2 33 12 33 5 0 7 -5 3 -12 -4 -7 -3 -8 4 -4 7 4 12 15 12 24 0 13 2 14 9 4 6
-11 10 -10 15 3 3 10 12 15 20 12 10 -4 13 0 11 14 -3 17 -1 18 18 7 21 -11
21 -10 7 7 -8 10 -10 16 -3 12 6 -4 19 3 30 16 10 13 24 22 32 19 10 -3 12 0
7 14 -6 15 -5 17 5 7 18 -18 30 -16 22 2 -6 17 16 17 30 0 5 -6 7 -4 4 6 -3 9
-1 22 4 30 7 11 9 11 9 1 0 -7 5 -10 11 -7 6 4 8 14 4 22 -4 12 -2 13 7 5 15
-11 42 10 30 24 -4 4 -1 4 5 0 7 -4 13 -2 13 4 0 6 5 8 11 5 6 -4 17 2 25 14
16 22 40 30 28 8 -4 -7 -3 -9 2 -4 5 5 9 12 9 16 0 16 37 43 60 45 17 1 21 4
13 13 -6 7 -8 14 -4 14 23 5 32 3 39 -6 6 -6 7 -3 4 7 -3 9 3 24 14 34 17 16
22 16 29 4 8 -13 10 -12 10 3 0 9 5 17 11 17 5 0 7 6 3 13 -5 7 -2 7 10 -2 13
-11 16 -11 14 -1 -2 7 3 15 11 18 9 3 11 0 6 -8 -5 -9 -4 -11 4 -6 9 6 9 11 1
21 -8 10 -8 15 1 21 7 4 9 3 5 -4 -4 -6 1 -10 13 -9 12 1 17 6 13 16 -4 10 0
13 16 9 16 -5 20 -2 17 13 -3 12 1 16 11 12 10 -4 12 0 7 13 -7 18 -6 18 11 2
22 -22 24 -22 22 -1 0 11 6 18 17 18 10 0 24 8 31 17 7 10 17 14 21 10 5 -4 5
1 2 11 -4 10 -3 16 2 12 5 -3 12 1 14 7 4 10 6 10 6 0 1 -11 4 -11 16 0 35 31
43 36 51 30 5 -4 2 2 -6 13 -8 11 -10 17 -6 13 5 -4 15 -3 23 3 10 9 17 8 28
-1 13 -11 14 -10 9 3 -6 17 28 41 41 29 5 -4 5 -1 1 6 -4 6 -2 12 4 12 6 0 8
4 5 10 -4 6 1 7 11 3 12 -4 15 -3 10 5 -6 10 10 17 35 14 4 -1 6 6 5 15 0 9 9
17 24 20 14 2 27 8 28 13 2 6 9 7 15 3 8 -4 8 -1 -1 9 -10 13 -9 15 13 13 17
-2 31 5 44 21 10 13 22 20 26 16 5 -4 5 1 2 11 -5 15 -3 16 12 7 15 -7 18 -6
17 8 0 10 6 16 16 16 10 -1 15 2 12 7 -5 8 10 13 29 10 5 -1 6 3 3 8 -3 5 4
11 15 14 14 4 18 10 13 19 -6 10 -5 10 9 0 14 -12 16 -11 12 7 -2 12 0 19 5
16 14 -9 41 7 36 21 -3 8 0 11 9 8 7 -3 23 4 35 16 12 12 28 19 37 16 13 -5
14 -4 4 8 -11 13 -9 15 8 11 11 -2 24 1 27 7 5 7 2 8 -7 3 -8 -4 -6 1 4 11 10
10 25 19 35 19 9 0 16 5 15 11 -1 7 6 10 20 7 18 -4 19 -3 7 6 -13 9 -12 11 3
11 12 0 16 4 11 12 -5 8 -2 8 10 -1 15 -12 17 -12 14 0 -2 8 3 13 10 11 6 -1
12 3 12 9 0 5 6 7 13 3 9 -6 9 -4 -1 8 -11 14 -11 16 6 12 10 -3 25 2 33 12
12 15 12 16 0 9 -10 -5 -12 -4 -7 4 5 7 16 9 28 5 14 -4 18 -2 14 5 -4 6 0 11
9 11 11 0 15 5 12 14 -4 10 0 12 15 8 16 -4 19 -2 13 8 -6 10 -2 12 18 8 22
-4 25 -2 17 11 -7 13 -4 16 17 15 24 -1 46 -21 38 -35 -3 -3 7 -5 20 -3 17 1
25 -3 25 -13 0 -9 6 -13 15 -10 8 4 17 2 20 -4 4 -5 11 -6 17 -3 7 4 8 2 4 -5
-6 -9 -11 -9 -22 0 -8 7 -14 7 -14 1 0 -13 29 -24 42 -15 7 3 8 1 4 -5 -4 -7
-3 -12 3 -12 15 0 14 -4 -70 -284 -12 -37 -22 -73 -23 -80 -2 -6 -9 -31 -16
-56 -7 -25 -15 -49 -16 -55 -1 -5 -18 -64 -38 -130 -19 -66 -49 -169 -66 -230
-17 -60 -34 -117 -37 -125 -3 -8 -7 -20 -9 -27 -1 -7 -17 -61 -34 -120 -18
-59 -33 -112 -34 -118 -1 -5 -5 -16 -9 -22 -12 -19 16 -16 39 4 36 34 93 73
103 73 6 0 11 3 11 8 0 4 17 18 38 32 20 14 42 29 47 33 6 4 44 32 85 62 41
30 80 58 85 62 6 5 42 31 80 58 39 27 72 53 73 57 2 4 9 8 15 8 6 0 21 10 33
21 13 12 32 27 43 33 10 6 65 45 121 86 56 41 109 80 118 85 16 10 29 20 56
43 8 6 19 12 25 12 5 0 11 4 13 8 8 19 76 61 95 59 17 -1 19 -4 11 -14 -8 -10
-7 -12 6 -7 9 4 16 1 16 -6 0 -8 9 -11 25 -8 14 3 23 1 22 -6 -1 -6 4 -10 12
-8 12 3 12 0 1 -12 -10 -13 -10 -16 4 -16 11 0 14 -4 10 -12 -6 -10 -5 -10 7
-1 12 10 18 8 32 -8 10 -11 15 -25 12 -32 -4 -7 1 -3 9 7 16 19 16 19 16 -4 0
-23 0 -23 15 -4 13 18 14 18 9 -6 -5 -20 -3 -22 5 -10 9 13 11 13 11 -1 0 -9
8 -23 18 -30 15 -13 16 -12 3 4 -12 15 -12 17 3 11 9 -3 16 -13 16 -21 0 -8 5
-11 10 -8 6 3 10 2 10 -3 0 -16 67 -62 94 -64 21 -2 23 -5 13 -17 -9 -12 -9
-13 1 -7 7 4 12 2 12 -4 0 -6 4 -9 9 -5 5 3 21 -6 35 -20 27 -27 42 -33 30
-12 -5 8 -2 8 9 -2 20 -16 22 -25 5 -16 -7 4 -4 -1 7 -9 11 -9 25 -14 32 -12
7 3 10 -2 8 -14 -2 -12 1 -17 9 -14 8 3 20 -2 29 -10 8 -8 17 -12 21 -9 3 4 6
-2 6 -12 0 -15 2 -16 17 -4 9 8 14 10 11 4 -3 -5 5 -20 18 -32 15 -15 24 -18
27 -10 3 7 6 4 6 -6 1 -10 5 -15 11 -12 5 3 10 2 10 -3 0 -5 9 -12 21 -15 12
-3 18 -10 15 -16 -4 -5 -1 -13 5 -17 7 -4 9 -3 5 4 -4 6 1 10 13 9 16 -1 18
-4 8 -17 -6 -8 -7 -12 -3 -8 5 4 15 0 23 -10 8 -9 12 -12 9 -6 -3 6 1 11 9 11
10 0 11 -5 4 -19 -6 -12 -6 -18 1 -18 5 0 10 5 10 11 0 5 5 7 10 4 6 -4 8 -11
4 -16 -3 -5 -2 -9 3 -8 25 4 42 -3 48 -20 3 -11 13 -22 22 -25 12 -5 13 -3 7
7 -5 7 -2 5 8 -5 9 -10 20 -18 25 -18 5 0 15 -9 23 -20 8 -11 22 -20 31 -20
20 0 41 -24 31 -36 -4 -4 1 -2 10 5 15 11 17 10 13 -8 -3 -15 0 -19 8 -14 18
11 38 12 31 2 -3 -5 -11 -6 -17 -2 -7 4 -6 -1 2 -11 10 -12 16 -14 22 -5 4 8
9 4 14 -11 5 -16 9 -19 15 -10 6 9 10 6 15 -9 4 -14 12 -20 21 -17 7 3 20 -4
27 -14 8 -11 17 -17 20 -13 4 3 7 0 7 -8 0 -13 69 -69 86 -69 4 0 -12 14 -34
30 -23 17 -42 32 -42 35 0 2 20 -10 45 -27 25 -18 45 -39 45 -47 0 -14 1 -14
10 -1 8 13 10 12 10 -4 0 -11 3 -16 7 -12 4 3 13 -4 21 -16 11 -19 12 -19 7
-3 -4 16 -1 14 18 -8 14 -15 32 -27 41 -27 9 0 19 -7 22 -15 4 -8 10 -12 15
-9 5 3 9 -2 9 -10 0 -8 5 -18 12 -22 6 -4 8 -3 5 3 -4 6 0 13 8 16 9 4 12 1 8
-9 -3 -7 0 -14 7 -14 6 0 9 -4 6 -9 -3 -5 1 -12 10 -15 9 -3 12 -2 8 5 -3 6 3
5 15 -3 12 -7 21 -16 21 -21 0 -4 -4 -5 -10 -2 -5 3 -10 1 -10 -5 0 -7 8 -9
19 -5 14 4 23 0 31 -15 6 -11 20 -20 30 -20 11 0 20 -4 20 -9 0 -5 9 -13 20
-16 11 -4 17 -11 14 -17 -4 -5 4 -4 17 3 23 12 23 11 9 -6 -8 -10 -10 -16 -4
-12 7 4 15 0 18 -9 4 -11 14 -14 27 -11 17 5 18 3 7 -11 -10 -12 -10 -14 0 -8
6 4 12 3 12 -2 0 -5 7 -9 15 -9 8 0 15 5 15 10 0 6 3 7 6 4 4 -4 1 -14 -7 -24
-9 -11 -10 -14 -1 -9 8 5 12 1 13 -11 0 -16 1 -16 8 1 7 19 8 19 13 -2 4 -15
11 -20 22 -16 9 3 16 1 16 -6 0 -6 5 -8 13 -4 9 6 9 4 -1 -8 -11 -14 -9 -16
16 -14 21 1 28 -2 25 -11 -3 -7 2 -13 11 -13 9 0 16 -4 16 -10 0 -5 7 -10 16
-10 9 0 12 -5 8 -13 -5 -7 -2 -7 10 2 15 12 17 12 14 0 -2 -8 4 -14 12 -14 8
0 23 -11 32 -24 9 -14 25 -29 35 -34 10 -6 15 -6 11 -2 -4 4 -3 17 3 28 7 11
7 17 1 13 -5 -3 -16 2 -23 11 -8 9 -9 14 -3 10 7 -4 14 0 18 8 3 8 0 14 -6 12
-6 -1 -13 4 -16 12 -3 9 0 11 9 6 11 -6 11 -5 2 5 -6 7 -9 20 -6 29 4 14 3 14
-6 1 -8 -12 -11 -8 -11 18 0 17 -5 32 -11 32 -7 0 -9 10 -7 25 3 13 2 22 -3
20 -4 -3 -10 -1 -14 5 -3 5 0 10 7 10 8 0 6 5 -5 11 -15 9 -16 13 -5 27 7 9 8
13 2 9 -7 -4 -15 0 -18 9 -3 8 -2 12 4 9 6 -3 10 -1 10 4 0 6 -5 11 -11 11 -5
0 -7 4 -4 10 3 5 -1 20 -9 32 -12 17 -13 25 -3 37 9 12 9 13 0 7 -12 -6 -18 5
-14 26 0 5 -4 8 -10 8 -8 0 -7 6 2 17 8 9 9 14 3 10 -7 -4 -14 0 -17 7 -3 8
-1 17 6 20 7 2 3 5 -8 5 -17 1 -17 3 -5 11 9 6 10 10 3 10 -6 0 -15 10 -19 23
-12 36 -13 48 -2 41 5 -3 4 3 -3 14 -7 12 -16 19 -19 17 -4 -2 -7 2 -7 10 0 8
3 12 7 10 4 -2 7 2 7 10 0 8 -4 12 -8 10 -4 -3 -10 2 -13 11 -3 8 -2 12 3 9 5
-3 13 0 17 6 4 7 3 9 -4 5 -6 -3 -13 -2 -16 2 -5 9 -18 68 -19 89 0 7 -5 9
-10 6 -6 -4 -8 2 -5 15 4 12 2 25 -3 28 -5 3 -6 10 -3 16 5 7 2 8 -6 3 -9 -6
-10 -2 -5 16 7 21 6 22 -9 10 -14 -12 -16 -12 -10 3 3 9 11 16 18 16 6 0 3 5
-6 11 -10 5 -18 15 -18 20 0 6 5 7 12 3 7 -4 8 -3 4 4 -4 7 -15 12 -24 13 -14
0 -13 2 3 9 11 5 14 9 7 9 -7 1 -10 6 -6 13 5 8 2 9 -11 4 -13 -5 -15 -3 -8 6
16 23 1 64 -19 52 -7 -4 -8 -2 -4 5 4 6 11 9 16 6 5 -3 12 -1 15 5 4 6 3 10
-2 9 -4 -1 -15 -1 -23 0 -13 1 -13 2 0 11 9 6 10 10 3 10 -7 0 -10 9 -8 21 3
15 0 19 -10 15 -11 -4 -12 0 -4 21 7 20 7 24 -4 20 -8 -3 -14 1 -14 9 0 7 5
10 11 7 6 -4 5 1 -3 10 -7 9 -17 14 -22 11 -5 -3 -6 2 -2 11 5 13 7 14 14 3 7
-10 9 -10 9 0 0 7 -7 15 -15 18 -9 4 -15 19 -15 39 0 18 -6 35 -13 38 -9 3
-12 18 -11 41 3 28 0 36 -14 36 -15 0 -15 2 -2 10 11 7 11 10 2 10 -7 0 -10 5
-7 10 3 6 2 10 -3 10 -5 0 -9 7 -9 15 0 10 4 12 12 5 7 -5 15 -7 18 -3 4 3 7
1 7 -5 0 -7 5 -12 11 -12 6 0 16 -6 23 -13 15 -14 28 -24 171 -124 61 -43 115
-82 121 -88 6 -5 22 -17 34 -25 38 -26 334 -240 351 -254 14 -11 95 -69 163
-116 11 -8 47 -33 79 -57 31 -24 62 -43 67 -43 6 0 4 16 -5 38 -7 20 -20 57
-26 82 -16 57 -13 47 -28 100 -7 25 -14 50 -16 55 -1 6 -5 17 -8 25 -4 8 -8
26 -11 40 -2 14 -11 44 -20 68 -8 23 -15 45 -15 47 1 6 -30 111 -57 196 -8 25
-16 54 -19 65 -2 10 -13 51 -25 89 -11 39 -22 77 -24 85 -2 8 -12 42 -22 75
-10 33 -19 65 -20 70 -1 6 -16 55 -32 110 -16 55 -32 109 -35 120 -3 11 -19
67 -37 125 -17 58 -33 114 -36 125 -7 27 -10 37 -16 55 -3 8 -13 40 -21 70 -9
30 -29 100 -46 155 -16 55 -32 111 -35 125 -2 14 -14 51 -25 83 -11 31 -18 57
-16 57 3 0 0 12 -6 28 -17 42 -59 191 -59 205 1 6 30 35 66 62 36 28 80 62 97
77 18 15 35 28 39 28 4 0 15 8 25 18 10 10 50 42 88 72 39 30 72 57 75 60 3 3
23 18 45 35 22 16 42 32 45 35 5 5 29 25 179 140 25 20 55 43 66 52 18 16 88
71 176 139 19 15 95 75 169 134 74 59 154 121 178 138 23 17 42 34 42 39 0 4
6 8 14 8 8 0 16 3 18 8 2 4 48 43 103 85 55 43 114 90 130 103 17 14 55 44 85
67 30 23 60 46 66 52 6 5 23 19 38 30 15 11 40 30 54 42 15 13 31 23 36 23 5
0 6 3 2 7 -4 4 -51 8 -104 9 -53 1 -236 5 -407 9 -462 10 -581 13 -792 16
-181 3 -191 4 -182 21 12 22 23 24 15 3 -3 -8 -3 -15 0 -15 2 0 9 12 14 26 6
14 14 23 19 20 5 -3 15 2 22 11 10 12 10 14 2 9 -17 -10 -16 -1 1 13 11 9 16
9 22 0 5 -8 3 -9 -6 -4 -9 5 -11 4 -6 -4 10 -16 29 -2 22 16 -4 11 -2 13 9 9
9 -3 15 0 15 9 0 7 5 17 12 21 7 5 8 3 3 -7 -7 -11 -6 -12 7 -2 8 7 19 9 24 5
4 -4 2 2 -6 12 -10 13 -10 17 -2 12 6 -4 12 -3 12 3 0 6 12 14 26 17 20 5 23
9 12 16 -10 7 -8 8 7 7 31 -2 45 0 44 9 -1 4 -1 14 0 22 1 13 2 13 11 0 8 -13
10 -12 10 3 0 10 4 16 9 12 5 -3 18 6 29 20 11 13 22 22 25 19 3 -3 10 4 17
15 6 12 15 19 21 16 5 -4 9 2 10 12 0 10 3 13 6 6 8 -21 22 -15 18 8 -4 18 -2
19 13 8 9 -7 14 -10 10 -5 -4 5 -1 15 7 22 17 17 29 18 19 2 -4 -8 -3 -10 2
-5 5 5 9 14 9 20 1 7 7 11 14 9 9 -2 11 3 7 13 -3 9 -2 13 4 10 6 -3 10 -1 10
4 0 6 9 11 20 11 13 0 18 5 14 15 -4 8 -1 15 5 15 6 0 11 -5 11 -12 0 -6 9 -3
20 7 11 10 20 24 20 32 0 7 5 13 11 13 5 0 7 -6 3 -12 -5 -9 -2 -8 10 1 9 8
15 19 12 26 -2 6 4 11 15 11 10 -1 19 4 19 9 2 14 28 27 40 20 5 -3 7 0 4 8
-3 8 0 18 7 23 7 4 10 3 6 -3 -3 -5 0 -10 8 -10 7 0 12 8 10 18 -2 10 1 22 7
25 7 4 8 2 4 -4 -4 -7 -1 -12 9 -12 11 0 15 5 11 15 -3 8 -2 14 2 14 20 -3 32
2 27 11 -4 6 -3 10 2 9 19 -3 33 2 33 12 0 5 -4 7 -10 4 -5 -3 -10 -1 -10 5 0
6 10 9 23 7 14 -3 31 5 47 21 16 16 17 20 5 11 -18 -13 -19 -13 -7 3 8 9 20
14 28 11 7 -3 17 2 20 11 3 9 11 13 17 9 7 -4 8 1 4 13 -7 18 -6 18 9 -1 15
-19 15 -19 10 7 -4 26 -3 27 16 17 15 -8 19 -8 13 1 -4 7 1 14 15 17 14 4 19
11 15 21 -5 13 -3 13 12 1 13 -11 15 -11 9 -1 -5 9 -1 15 13 19 11 3 18 9 15
14 -3 5 2 9 11 9 9 0 14 4 11 9 -4 5 2 8 11 6 26 -4 44 15 38 39 -4 12 -3 17
2 11 16 -20 36 -17 30 5 -4 17 -3 19 9 9 11 -9 14 -8 15 7 0 11 3 14 6 7 5
-14 24 -18 22 -5 -3 20 3 32 17 32 8 0 12 5 8 11 -4 8 0 9 15 4 17 -5 20 -3
14 12 -3 10 -3 15 2 11 4 -4 14 0 22 10 8 9 12 11 8 5 -3 -7 -1 -13 4 -13 6 0
11 7 11 15 0 13 19 20 44 16 5 -1 4 4 -3 12 -9 12 -7 16 10 20 12 3 18 10 14
16 -3 6 1 11 10 11 10 0 13 -5 9 -12 -5 -7 -3 -8 5 -4 7 5 10 10 7 13 -5 6 18
33 29 33 3 0 3 -5 -1 -12 -4 -7 -3 -8 5 -4 6 4 9 12 6 17 -4 5 1 9 10 9 11 0
15 7 13 23 -3 21 -22 29 -43 18 -18 -9 -45 -8 -45 2 0 6 -3 7 -7 4 -3 -4 -13
-1 -21 6 -10 8 -13 8 -9 1 4 -7 0 -14 -8 -18 -8 -3 -17 -1 -20 5 -4 5 -11 6
-17 3 -6 -4 -24 -8 -40 -8 -21 -1 -27 3 -23 14 4 11 2 11 -8 -2 -12 -15 -14
-15 -25 0 -7 9 -10 11 -6 3 5 -10 3 -13 -8 -9 -8 4 -21 2 -28 -2 -8 -5 -23 -2
-37 7 -13 8 -23 11 -23 7 0 -5 -29 -7 -65 -6 -43 3 -63 7 -59 14 4 7 2 8 -4 4
-7 -4 -12 -15 -13 -24 0 -12 -3 -10 -10 7 -8 19 -12 21 -24 11 -12 -10 -18
-10 -30 0 -13 11 -14 10 -9 -5 6 -14 4 -16 -7 -9 -8 4 -22 7 -33 5 -13 -2 -16
1 -10 11 6 10 4 10 -9 -1 -12 -9 -17 -10 -17 -2 0 7 -5 9 -10 6 -8 -5 -7 -12
2 -23 12 -15 11 -16 -4 -4 -9 8 -23 10 -29 6 -8 -4 -9 -3 -5 4 4 7 2 12 -3 12
-6 0 -11 -4 -11 -10 0 -5 -5 -10 -10 -10 -7 0 -6 8 1 23 11 20 11 21 -4 9 -9
-8 -22 -10 -29 -6 -9 6 -9 3 1 -9 12 -15 12 -17 -3 -11 -9 3 -16 11 -16 18 0
6 -5 4 -10 -4 -9 -13 -11 -13 -20 0 -5 8 -10 10 -10 4 0 -6 -10 -10 -22 -8
-13 1 -23 3 -23 4 0 1 -8 3 -18 5 -14 3 -17 -1 -13 -13 4 -9 -3 -6 -14 8 -11
14 -18 17 -14 8 4 -12 1 -16 -13 -13 -10 1 -17 8 -15 15 1 6 -2 9 -8 5 -6 -3
-7 -12 -3 -18 5 -8 2 -8 -9 0 -8 7 -18 10 -22 6 -10 -11 -76 -11 -76 -1 0 5
-10 4 -21 -3 -12 -6 -19 -7 -15 -1 3 5 -1 13 -10 16 -8 3 -12 2 -9 -4 8 -13
-1 -13 -28 2 -19 10 -20 9 -10 -3 10 -12 8 -15 -7 -15 -10 0 -17 3 -14 7 8 14
-26 18 -38 5 -11 -11 -15 -11 -24 2 -9 12 -13 12 -19 2 -6 -9 -4 -11 6 -5 8 5
11 4 6 0 -4 -5 -16 -9 -27 -10 -15 -1 -17 1 -8 12 6 7 8 16 4 20 -3 3 -6 1 -6
-6 0 -8 -8 -11 -20 -8 -11 3 -18 2 -15 -2 2 -5 -9 -8 -25 -7 -17 1 -30 5 -30
10 0 6 -6 1 -14 -9 -14 -19 -15 -19 -34 -2 -15 14 -21 15 -25 5 -4 -10 -6 -10
-6 0 -1 6 -5 12 -11 12 -5 0 -8 -6 -6 -12 1 -7 1 -10 -1 -5 -3 4 -23 7 -44 7
-30 0 -38 3 -33 13 6 8 3 8 -9 -2 -9 -7 -23 -11 -31 -8 -8 3 -17 1 -20 -6 -2
-7 -5 -4 -5 6 -1 17 -2 17 -17 2 -15 -14 -18 -14 -33 0 -20 18 -31 19 -31 4 0
-5 5 -7 12 -3 7 5 8 3 3 -5 -5 -9 -11 -9 -17 -3 -6 6 -17 8 -26 5 -11 -5 -13
-3 -7 8 8 12 6 12 -8 0 -9 -7 -17 -10 -17 -6 0 4 -6 2 -14 -4 -11 -9 -16 -9
-23 1 -4 7 -20 13 -35 14 -15 1 -25 -2 -23 -6 2 -4 -9 -7 -25 -6 -17 1 -30 5
-30 10 0 5 -7 3 -15 -4 -10 -9 -15 -9 -15 -1 0 6 -5 11 -11 11 -5 0 -8 -4 -4
-9 3 -5 1 -13 -5 -16 -6 -4 -10 -3 -9 2 3 20 -2 25 -16 13 -10 -8 -15 -9 -15
-2 0 6 -7 9 -15 6 -8 -4 -12 -11 -8 -17 3 -6 1 -7 -6 -3 -6 4 -9 12 -6 17 4 5
-1 9 -10 9 -9 0 -14 -4 -11 -8 3 -5 -1 -9 -9 -9 -8 0 -15 7 -15 16 0 12 -2 13
-9 3 -10 -16 -42 -22 -56 -11 -12 9 -34 7 -52 -4 -6 -4 -15 -2 -19 4 -5 8 -3
9 6 4 9 -5 11 -4 6 4 -6 9 -11 9 -22 0 -10 -8 -14 -8 -14 -1 0 6 -7 9 -15 6
-8 -4 -12 -11 -8 -18 5 -8 3 -8 -8 -1 -22 16 -73 20 -64 4 5 -8 4 -10 -4 -5
-9 6 -9 11 0 22 16 20 4 18 -16 -3 -14 -14 -18 -14 -26 -2 -6 10 -9 10 -9 2 0
-7 -5 -13 -11 -13 -5 0 -7 5 -3 12 5 7 3 8 -6 3 -7 -4 -30 -8 -51 -9 -29 -2
-39 2 -40 13 0 12 -3 10 -9 -4 -6 -14 -9 -15 -10 -5 0 12 -3 12 -14 -3 -12
-16 -14 -16 -20 -2 -4 11 -2 14 6 9 7 -5 8 -3 3 5 -5 9 -14 6 -33 -11 -15 -13
-21 -16 -14 -7 10 14 10 18 -3 23 -9 3 -13 2 -10 -4 3 -6 -3 -10 -14 -10 -12
0 -21 6 -21 13 0 8 -4 7 -10 -3 -8 -12 -11 -13 -19 -1 -7 11 -9 11 -14 0 -4
-11 -6 -11 -7 1 0 10 -6 6 -16 -10 -8 -14 -13 -17 -10 -8 3 10 1 20 -4 23 -6
4 -10 1 -10 -6 0 -22 -16 4 -34 56 -10 28 -20 57 -23 65 -3 8 -7 21 -9 28 -1
8 -6 21 -10 30 -4 9 -8 22 -10 27 -10 40 -68 212 -74 220 -4 6 -11 26 -15 45
-4 19 -12 46 -18 60 -5 14 -12 31 -14 38 -1 6 -5 18 -6 25 -2 6 -7 19 -10 27
-14 31 -128 376 -133 400 -7 34 -10 35 -22 3 -5 -15 -14 -37 -18 -48 -4 -11
-8 -22 -9 -25 -1 -3 -4 -12 -7 -20 -4 -8 -23 -67 -43 -130 -21 -63 -41 -124
-45 -135 -5 -11 -16 -45 -26 -75 -9 -30 -21 -61 -27 -67 -5 -7 -7 -13 -4 -13
5 0 -70 -233 -90 -280 -3 -8 -8 -22 -10 -30 -5 -21 -9 -32 -16 -50 -3 -8 -13
-37 -22 -65 -9 -27 -24 -57 -33 -66 -16 -14 -18 -14 -30 0 -12 14 -13 14 -8
-3 6 -17 5 -17 -11 -5 -15 13 -16 12 -9 -6 6 -17 3 -16 -20 5 -15 14 -24 20
-21 14 4 -7 0 -15 -9 -18 -9 -3 -12 -2 -9 4 4 6 -8 13 -24 16 -29 6 -30 8 -14
21 10 8 12 12 6 8 -7 -3 -13 -1 -13 5 0 6 -4 9 -8 6 -4 -2 -8 4 -8 14 0 10 4
16 8 14 4 -3 8 0 8 5 0 6 -7 11 -16 11 -8 0 -12 5 -8 11 3 6 1 15 -7 19 -7 5
-14 16 -15 24 -1 9 1 14 6 11 4 -3 6 4 3 15 -3 11 -9 20 -13 20 -4 0 -11 7
-14 16 -3 8 -2 12 4 9 6 -3 7 1 4 10 -4 9 -13 14 -21 11 -11 -4 -11 -1 -3 14
8 15 8 20 -2 20 -8 1 -5 7 7 16 20 16 19 16 -4 9 -19 -6 -23 -4 -18 9 3 8 2
18 -4 22 -7 4 -6 10 0 18 8 9 5 18 -9 31 -11 10 -17 22 -14 26 3 5 0 9 -7 9
-8 0 -7 5 2 17 12 14 12 16 0 8 -11 -6 -13 -4 -8 8 3 9 2 19 -4 22 -5 4 -6 11
-3 17 4 7 2 8 -4 4 -7 -4 -12 -1 -12 8 0 9 -4 16 -10 16 -5 0 -10 5 -10 11 0
5 4 8 9 4 5 -3 13 0 17 6 4 7 3 9 -3 6 -6 -4 -17 1 -24 10 -10 12 -10 14 -1 9
6 -4 12 -2 12 3 0 6 -8 11 -17 11 -15 0 -16 2 -3 10 12 8 12 10 1 10 -9 0 -12
8 -8 25 3 18 -2 30 -17 40 -11 8 -15 15 -8 15 7 0 10 5 7 10 -4 6 -12 7 -18 4
-9 -5 -9 -4 0 6 9 10 9 16 -2 26 -7 8 -11 23 -7 36 5 21 4 22 -13 8 -17 -14
-18 -14 -7 7 9 17 9 22 -4 27 -11 4 -12 10 -5 23 6 13 5 24 -5 37 -7 10 -11
23 -8 28 3 4 -5 12 -18 17 -20 8 -20 10 -4 10 19 1 19 2 -2 21 -26 25 -28 32
-5 23 11 -4 14 -3 9 5 -4 7 -14 12 -23 12 -12 0 -13 3 -4 13 8 10 6 19 -9 35
-21 22 -27 37 -11 28 11 -7 8 21 -4 31 -4 4 -5 2 -1 -4 5 -9 2 -11 -9 -7 -12
5 -13 10 -6 17 16 16 13 27 -6 27 -15 0 -16 2 -3 10 13 9 13 10 0 10 -13 0
-13 1 0 10 11 7 11 10 2 10 -7 0 -10 5 -7 10 3 6 1 10 -4 10 -6 0 -10 6 -9 13
2 6 -3 11 -11 9 -12 -3 -12 0 -2 12 10 12 9 16 -6 25 -17 10 -17 10 2 11 16 0
17 2 5 9 -8 6 -18 7 -22 5 -4 -3 -8 0 -8 5 0 6 5 11 10 11 6 0 10 5 10 11 0 5
-4 7 -10 4 -6 -3 -10 5 -10 19 0 13 -6 27 -12 29 -9 4 -8 6 2 7 10 0 6 6 -10
16 -18 11 -20 14 -5 10 20 -6 20 -6 1 9 -18 14 -15 20 7 16 5 -1 6 3 2 9 -3 6
-11 7 -17 4 -7 -5 -9 2 -6 19 3 15 2 24 -2 22 -4 -3 -14 3 -21 12 -12 15 -12
16 6 10 17 -6 17 -4 -4 13 -13 11 -18 20 -12 20 6 0 11 5 11 11 0 5 -4 8 -9 5
-4 -3 -13 6 -20 21 -10 23 -10 25 3 14 11 -9 16 -9 22 1 4 7 4 10 0 6 -15 -13
-43 23 -41 52 1 16 -2 27 -6 25 -12 -8 -18 22 -6 34 9 9 8 11 -5 6 -13 -5 -15
-2 -11 13 2 10 -3 26 -11 35 -12 11 -13 17 -3 20 7 3 5 6 -5 6 -10 1 -18 5
-18 11 0 5 8 6 17 3 12 -5 8 3 -10 20 -30 31 -33 38 -14 33 6 -1 9 -1 5 1 -5
3 -8 11 -8 19 0 8 -4 14 -10 14 -5 0 -9 3 -9 8 4 24 -2 42 -13 36 -7 -5 -9 -2
-5 8 3 9 0 21 -6 28 -9 10 -9 11 0 6 9 -5 11 -2 7 8 -3 9 -11 13 -18 9 -6 -4
-4 2 4 12 13 17 13 18 -1 13 -9 -4 -16 -1 -16 8 0 7 4 11 9 8 4 -3 4 6 -1 19
-6 14 -7 28 -3 33 4 4 1 4 -6 0 -9 -5 -13 -3 -11 5 3 19 -11 50 -21 44 -4 -2
-6 9 -4 26 3 24 1 30 -11 25 -8 -3 -17 -1 -20 5 -4 5 -3 9 2 8 22 -4 25 3 7
17 -10 8 -13 13 -6 9 17 -9 15 3 -3 22 -13 12 -13 18 -3 31 10 12 10 14 1 8
-9 -5 -13 -1 -13 11 0 15 -2 16 -10 3 -7 -11 -8 -5 -3 19 5 28 3 33 -8 26 -11
-7 -11 -5 1 10 12 15 12 17 1 10 -11 -6 -13 -4 -8 8 3 9 1 19 -4 23 -6 3 -9
14 -6 24 2 10 -6 30 -19 45 -29 34 -29 36 -6 28 15 -5 14 -4 -2 9 -10 8 -16
19 -13 25 3 5 -3 17 -14 26 -20 18 -26 47 -9 47 6 0 5 6 -2 14 -9 10 -15 11
-20 2 -5 -6 -8 -7 -8 -1 0 6 8 22 17 35 14 21 14 23 1 12 -13 -10 -17 -10 -22
3 -4 11 -2 14 7 10 6 -4 3 1 -7 9 -14 11 -15 16 -6 16 9 0 8 4 -5 13 -10 8
-15 19 -11 25 4 7 1 12 -6 12 -9 0 -9 3 2 10 13 8 13 10 -1 10 -9 0 -20 7 -23
16 -5 14 -4 15 9 4 13 -11 14 -10 9 4 -3 9 -11 16 -16 16 -6 0 -4 8 3 17 12
15 12 16 -2 11 -13 -5 -16 -2 -12 13 3 11 0 19 -7 19 -8 0 -11 9 -8 24 4 18 1
23 -10 18 -10 -3 -13 0 -10 9 3 8 11 13 17 11 7 -1 10 2 6 8 -3 6 -11 8 -16 5
-8 -6 -13 8 -10 28 0 4 -4 7 -10 7 -8 0 -7 6 2 17 10 11 10 14 2 9 -9 -5 -13
-1 -13 10 0 9 -8 23 -17 31 -10 8 -12 12 -5 8 6 -3 12 -1 12 4 0 6 -5 11 -12
11 -6 0 -3 7 8 15 18 13 18 14 -5 8 -22 -6 -24 -4 -18 25 5 22 2 32 -10 36
-10 4 -14 15 -11 31 3 13 2 24 -1 23 -17 -2 -21 4 -12 20 7 14 6 19 -4 19 -8
0 -11 -5 -8 -10 3 -6 1 -7 -6 -3 -9 6 -9 11 -1 21 8 9 7 14 -4 18 -9 3 -12 15
-9 31 4 17 1 26 -7 26 -9 0 -9 4 -2 13 7 8 6 18 -4 31 -7 10 -11 23 -8 27 3 5
0 9 -6 9 -7 0 -10 7 -7 14 4 11 1 13 -10 9 -11 -4 -14 -2 -9 5 4 7 2 12 -3 12
-6 0 -12 -8 -13 -17z m57 -73 c3 -5 2 -10 -4 -10 -5 0 -13 5 -16 10 -3 6 -2
10 4 10 5 0 13 -4 16 -10z m320 -920 c3 -5 -1 -10 -10 -10 -9 0 -13 5 -10 10
3 6 8 10 10 10 2 0 7 -4 10 -10z m110 -329 c3 -5 2 -12 -3 -15 -5 -3 -9 1 -9
9 0 17 3 19 12 6z m-1184 -714 c-6 -8 -7 -18 -3 -22 4 -5 2 -5 -5 -1 -14 8 -6
36 9 36 7 0 6 -5 -1 -13z m-116 -337 c3 -5 1 -10 -4 -10 -6 0 -11 5 -11 10 0
6 2 10 4 10 3 0 8 -4 11 -10z m1712 -136 c-3 -3 -12 -4 -19 -1 -8 3 -5 6 6 6
11 1 17 -2 13 -5z m14 -41 c13 -16 12 -17 -3 -4 -10 7 -18 15 -18 17 0 8 8 3
21 -13z m74 -203 c3 -5 1 -10 -4 -10 -6 0 -11 5 -11 10 0 6 2 10 4 10 3 0 8
-4 11 -10z m59 -178 c3 -5 -1 -9 -9 -9 -8 0 -12 4 -9 9 3 4 7 8 9 8 2 0 6 -4
9 -8z m40 -100 c3 -5 -1 -9 -9 -9 -8 0 -15 4 -15 9 0 4 4 8 9 8 6 0 12 -4 15
-8z m-2694 -376 c0 -3 -4 -8 -10 -11 -5 -3 -10 -1 -10 4 0 6 5 11 10 11 6 0
10 -2 10 -4z m-1519 -43 c13 -16 12 -17 -3 -4 -10 7 -18 15 -18 17 0 8 8 3 21
-13z m-301 -3 c0 -5 -2 -10 -4 -10 -3 0 -8 5 -11 10 -3 6 -1 10 4 10 6 0 11
-4 11 -10z m-1189 -167 c13 -16 12 -17 -3 -4 -10 7 -18 15 -18 17 0 8 8 3 21
-13z m2369 -1795 c0 -6 -6 -5 -15 2 -8 7 -15 14 -15 16 0 2 7 1 15 -2 8 -4 15
-11 15 -16z m1600 -2123 c0 -12 -19 -12 -23 0 -4 9 -1 12 9 8 7 -3 14 -7 14
-8z m1884 -381 c5 -14 4 -15 -9 -4 -17 14 -19 20 -6 20 5 0 12 -7 15 -16z
m-3154 -500 c0 -8 -19 -13 -24 -6 -3 5 1 9 9 9 8 0 15 -2 15 -3z m-113 -76
c-3 -8 -6 -5 -6 6 -1 11 2 17 5 13 3 -3 4 -12 1 -19z m4678 -398 c3 -5 1 -10
-4 -10 -6 0 -11 5 -11 10 0 6 2 10 4 10 3 0 8 -4 11 -10z"/>
<path d="M6520 10201 c0 -6 4 -13 10 -16 6 -3 7 1 4 9 -7 18 -14 21 -14 7z"/>
<path d="M8876 7632 c-3 -5 1 -9 9 -9 8 0 12 4 9 9 -3 4 -7 8 -9 8 -2 0 -6 -4
-9 -8z"/>
<path d="M9590 7610 c0 -5 5 -10 10 -10 6 0 10 5 10 10 0 6 -4 10 -10 10 -5 0
-10 -4 -10 -10z"/>
<path d="M2190 6946 c0 -2 7 -7 16 -10 8 -3 12 -2 9 4 -6 10 -25 14 -25 6z"/>
<path d="M2290 6881 c0 -6 4 -13 10 -16 6 -3 7 1 4 9 -7 18 -14 21 -14 7z"/>
<path d="M4905 3070 c-3 -5 -1 -10 4 -10 6 0 11 5 11 10 0 6 -2 10 -4 10 -3 0
-8 -4 -11 -10z"/>
<path d="M4525 2800 c-3 -6 1 -7 9 -4 18 7 21 14 7 14 -6 0 -13 -4 -16 -10z"/>
<path d="M4105 2509 c-4 -6 -5 -12 -2 -15 2 -3 7 2 10 11 7 17 1 20 -8 4z"/>
<path d="M9027 2469 c7 -7 15 -10 18 -7 3 3 -2 9 -12 12 -14 6 -15 5 -6 -5z"/>
</g>
</svg>
